<mxfile host="app.diagrams.net" modified="2022-04-20T08:12:28.935Z" agent="5.0 (X11; Linux x86_64) AppleWebKit/537.36 (KHTML, like Gecko) Chrome/100.0.4896.127 Safari/537.36" etag="y8KJDFQ23WPx3XiXg0QN" version="17.4.5" type="github">
  <diagram id="reJ_WDMoPSyZpeSLyZHJ" name="Page-1">
    <mxGraphModel dx="1422" dy="737" grid="1" gridSize="10" guides="1" tooltips="1" connect="1" arrows="1" fold="1" page="1" pageScale="1" pageWidth="850" pageHeight="1100" math="0" shadow="0">
      <root>
        <mxCell id="0" />
        <mxCell id="1" parent="0" />
        <mxCell id="hdWqnh-wMZleuXx8cpSs-12" style="edgeStyle=orthogonalEdgeStyle;rounded=0;orthogonalLoop=1;jettySize=auto;html=1;entryX=0.5;entryY=0;entryDx=0;entryDy=0;entryPerimeter=0;fontSize=16;" edge="1" parent="1" source="hdWqnh-wMZleuXx8cpSs-2" target="hdWqnh-wMZleuXx8cpSs-6">
          <mxGeometry relative="1" as="geometry" />
        </mxCell>
        <mxCell id="hdWqnh-wMZleuXx8cpSs-2" value="&lt;font style=&quot;font-size: 16px&quot;&gt;Cash out POST&amp;nbsp;&lt;span class=&quot;resolvedVariable&quot; spellcheck=&quot;false&quot; style=&quot;text-align: left ; background-color: rgb(255 , 255 , 255)&quot;&gt;&lt;span&gt;{{host}}&lt;/span&gt;&lt;/span&gt;&lt;span style=&quot;color: rgb(33 , 33 , 33) ; text-align: left ; background-color: rgb(255 , 255 , 255)&quot;&gt;&lt;span&gt;/v1/cards/load/:otpCode&lt;/span&gt;&lt;/span&gt;&lt;br&gt;&amp;nbsp;&lt;/font&gt;" style="text;html=1;align=center;verticalAlign=middle;resizable=0;points=[];autosize=1;strokeColor=#b85450;fillColor=#f8cecc;" vertex="1" parent="1">
          <mxGeometry x="30" y="30" width="350" height="40" as="geometry" />
        </mxCell>
        <mxCell id="hdWqnh-wMZleuXx8cpSs-10" style="edgeStyle=orthogonalEdgeStyle;rounded=0;orthogonalLoop=1;jettySize=auto;html=1;fontSize=16;" edge="1" parent="1" source="hdWqnh-wMZleuXx8cpSs-6" target="hdWqnh-wMZleuXx8cpSs-9">
          <mxGeometry relative="1" as="geometry" />
        </mxCell>
        <mxCell id="hdWqnh-wMZleuXx8cpSs-6" value="CardsController.loadByTime" style="text;html=1;resizable=0;autosize=1;align=center;verticalAlign=middle;points=[];fillColor=#fff2cc;strokeColor=#d6b656;rounded=0;fontSize=16;" vertex="1" parent="1">
          <mxGeometry x="100" y="110" width="210" height="20" as="geometry" />
        </mxCell>
        <mxCell id="hdWqnh-wMZleuXx8cpSs-9" value="CardsService.loadOtpGuarded" style="text;html=1;align=center;verticalAlign=middle;resizable=0;points=[];autosize=1;strokeColor=#6c8ebf;fillColor=#dae8fc;fontSize=16;" vertex="1" parent="1">
          <mxGeometry x="90" y="170" width="230" height="20" as="geometry" />
        </mxCell>
        <mxCell id="hdWqnh-wMZleuXx8cpSs-13" value="verifyOtpTokenForCard" style="text;html=1;resizable=0;autosize=1;align=center;verticalAlign=middle;points=[];fillColor=#dae8fc;strokeColor=#6c8ebf;rounded=0;fontSize=16;" vertex="1" parent="1">
          <mxGeometry x="210" y="230" width="180" height="20" as="geometry" />
        </mxCell>
        <mxCell id="hdWqnh-wMZleuXx8cpSs-14" value="loadByTime" style="text;html=1;resizable=0;autosize=1;align=center;verticalAlign=middle;points=[];fillColor=#dae8fc;strokeColor=#6c8ebf;rounded=0;fontSize=16;" vertex="1" parent="1">
          <mxGeometry x="215" y="290" width="100" height="20" as="geometry" />
        </mxCell>
        <mxCell id="hdWqnh-wMZleuXx8cpSs-17" value="" style="endArrow=none;html=1;rounded=0;fontSize=16;" edge="1" parent="1">
          <mxGeometry width="50" height="50" relative="1" as="geometry">
            <mxPoint x="200" y="440" as="sourcePoint" />
            <mxPoint x="200" y="190" as="targetPoint" />
          </mxGeometry>
        </mxCell>
        <mxCell id="hdWqnh-wMZleuXx8cpSs-18" value="getCardPan" style="text;html=1;resizable=0;autosize=1;align=center;verticalAlign=middle;points=[];fillColor=#dae8fc;strokeColor=#6c8ebf;rounded=0;fontSize=16;" vertex="1" parent="1">
          <mxGeometry x="210" y="350" width="100" height="20" as="geometry" />
        </mxCell>
        <mxCell id="hdWqnh-wMZleuXx8cpSs-19" value="incrementCardholderBalance" style="text;html=1;resizable=0;autosize=1;align=center;verticalAlign=middle;points=[];fillColor=#dae8fc;strokeColor=#6c8ebf;rounded=0;fontSize=16;" vertex="1" parent="1">
          <mxGeometry x="390" y="350" width="220" height="20" as="geometry" />
        </mxCell>
        <mxCell id="hdWqnh-wMZleuXx8cpSs-20" value="..........." style="text;html=1;align=center;verticalAlign=middle;resizable=0;points=[];autosize=1;strokeColor=#6c8ebf;fillColor=#dae8fc;fontSize=16;" vertex="1" parent="1">
          <mxGeometry x="390" y="290" width="60" height="20" as="geometry" />
        </mxCell>
        <mxCell id="hdWqnh-wMZleuXx8cpSs-22" value="&lt;pre style=&quot;background-color: #2b2b2b ; color: #a9b7c6 ; font-family: &amp;quot;jetbrains mono&amp;quot; , monospace ; font-size: 9.8pt&quot;&gt;&lt;span style=&quot;color: #bbb529&quot;&gt;@SorbetTransactional&lt;/span&gt;()&lt;/pre&gt;" style="text;whiteSpace=wrap;html=1;fontSize=16;" vertex="1" parent="1">
          <mxGeometry x="390" y="310" width="210" height="40" as="geometry" />
        </mxCell>
        <mxCell id="hdWqnh-wMZleuXx8cpSs-26" value="" style="endArrow=none;html=1;rounded=0;fontSize=16;entryX=1;entryY=0.7;entryDx=0;entryDy=0;entryPerimeter=0;" edge="1" parent="1" target="hdWqnh-wMZleuXx8cpSs-14">
          <mxGeometry width="50" height="50" relative="1" as="geometry">
            <mxPoint x="380" y="304" as="sourcePoint" />
            <mxPoint x="450" y="170" as="targetPoint" />
          </mxGeometry>
        </mxCell>
        <mxCell id="hdWqnh-wMZleuXx8cpSs-27" value="" style="endArrow=none;html=1;rounded=0;fontSize=16;" edge="1" parent="1">
          <mxGeometry width="50" height="50" relative="1" as="geometry">
            <mxPoint x="380" y="360" as="sourcePoint" />
            <mxPoint x="380" y="305" as="targetPoint" />
          </mxGeometry>
        </mxCell>
        <mxCell id="hdWqnh-wMZleuXx8cpSs-28" value="PaymentService.incrementBalance (stripe | nium)" style="text;html=1;align=center;verticalAlign=middle;resizable=0;points=[];autosize=1;strokeColor=#6c8ebf;fillColor=#dae8fc;fontSize=16;" vertex="1" parent="1">
          <mxGeometry x="500" y="410" width="370" height="20" as="geometry" />
        </mxCell>
        <mxCell id="hdWqnh-wMZleuXx8cpSs-29" value="&lt;div&gt;UnitService.decrement (PTO_BAL_IN_MIN)&lt;/div&gt;&lt;div&gt;UnitService.decrementv(PTO_TO_LIQ_IN_MIN)&lt;/div&gt;&lt;div&gt;UnitService.decrement (PTOD_IN_MIN)&lt;/div&gt;" style="text;html=1;align=left;verticalAlign=middle;resizable=0;points=[];autosize=1;strokeColor=#6c8ebf;fillColor=#dae8fc;fontSize=16;" vertex="1" parent="1">
          <mxGeometry x="500" y="450" width="360" height="60" as="geometry" />
        </mxCell>
        <mxCell id="hdWqnh-wMZleuXx8cpSs-30" value="CardsService.chargeFeeAndLinkWithTransaction" style="text;html=1;align=center;verticalAlign=middle;resizable=0;points=[];autosize=1;strokeColor=#6c8ebf;fillColor=#dae8fc;fontSize=16;" vertex="1" parent="1">
          <mxGeometry x="500" y="540" width="370" height="20" as="geometry" />
        </mxCell>
        <mxCell id="hdWqnh-wMZleuXx8cpSs-31" value="PaymentService.getCard" style="text;html=1;align=center;verticalAlign=middle;resizable=0;points=[];autosize=1;strokeColor=#6c8ebf;fillColor=#dae8fc;fontSize=16;" vertex="1" parent="1">
          <mxGeometry x="500" y="590" width="190" height="20" as="geometry" />
        </mxCell>
        <mxCell id="hdWqnh-wMZleuXx8cpSs-32" value="MailTemplateSendingService.mailTemplateSendingService" style="text;html=1;align=center;verticalAlign=middle;resizable=0;points=[];autosize=1;strokeColor=#6c8ebf;fillColor=#dae8fc;fontSize=16;" vertex="1" parent="1">
          <mxGeometry x="500" y="650" width="430" height="20" as="geometry" />
        </mxCell>
        <mxCell id="hdWqnh-wMZleuXx8cpSs-33" value="" style="endArrow=none;html=1;rounded=0;fontSize=16;" edge="1" parent="1">
          <mxGeometry width="50" height="50" relative="1" as="geometry">
            <mxPoint x="480" y="670" as="sourcePoint" />
            <mxPoint x="480" y="380" as="targetPoint" />
          </mxGeometry>
        </mxCell>
        <mxCell id="hdWqnh-wMZleuXx8cpSs-34" value="rollback" style="text;html=1;align=center;verticalAlign=middle;resizable=0;points=[];autosize=1;strokeColor=none;fillColor=none;fontSize=18;rotation=270;fontColor=#FF1900;" vertex="1" parent="1">
          <mxGeometry x="425" y="530" width="80" height="30" as="geometry" />
        </mxCell>
      </root>
    </mxGraphModel>
  </diagram>
</mxfile>
